<svg width="60" height="60" viewBox="0 0 60 60" fill="none" xmlns="http://www.w3.org/2000/svg">
<path d="M47.1094 19.4531C46.4625 19.4531 45.9375 19.9781 45.9375 20.625C45.9375 21.2719 46.4625 21.7969 47.1094 21.7969C47.7563 21.7969 48.2812 21.2719 48.2812 20.625C48.2812 19.9781 47.7563 19.4531 47.1094 19.4531Z" fill="#2C2C2C"/>
<path d="M56.4844 14.7656H43.6148L39.8993 7.33441C39.2996 6.13547 38.0947 5.39062 36.7547 5.39062H23.2453C21.905 5.39062 20.7001 6.13547 20.1007 7.33453L16.3852 14.7656H14.0625V13.5938C14.0625 11.6552 12.4854 10.0781 10.5469 10.0781H8.20312C6.26461 10.0781 4.6875 11.6552 4.6875 13.5938V14.7656H3.51562C1.57711 14.7656 0 16.3427 0 18.2812C0 21.4658 0 49.855 0 51.0938C0 53.0323 1.57711 54.6094 3.51562 54.6094H56.4844C58.4229 54.6094 60 53.0323 60 51.0938C60 47.9092 60 19.52 60 18.2812C60 16.3427 58.4229 14.7656 56.4844 14.7656ZM22.1971 8.38266C22.397 7.98281 22.7986 7.73438 23.2453 7.73438H36.7547C37.2014 7.73438 37.6031 7.98281 37.803 8.38266L40.9945 14.7656H19.0055L22.1971 8.38266ZM7.03125 13.5938C7.03125 12.9476 7.55695 12.4219 8.20312 12.4219H10.5469C11.193 12.4219 11.7188 12.9476 11.7188 13.5938V14.7656H7.03125V13.5938ZM2.34375 26.4727H17.1622C15.6048 28.9056 14.7656 31.7569 14.7656 34.6875C14.7656 37.6184 15.6049 40.4582 17.1621 42.8906H2.34375V26.4727ZM30 21.7969C37.0468 21.7969 42.8906 27.5061 42.8906 34.6875C42.8906 41.8608 37.055 47.5781 30 47.5781C22.9386 47.5781 17.1094 41.8545 17.1094 34.6875C17.1094 27.515 22.9441 21.7969 30 21.7969ZM57.6562 51.0938C57.6562 51.7399 57.1305 52.2656 56.4844 52.2656H3.51562C2.86945 52.2656 2.34375 51.7399 2.34375 51.0938V45.2344H19.0109C21.8743 48.2194 25.8486 49.9219 30 49.9219C34.1521 49.9219 38.1267 48.2189 40.9893 45.2344H57.6562V51.0938ZM57.6562 42.8906H42.8378C44.3952 40.4577 45.2344 37.6182 45.2344 34.6875C45.2344 31.7568 44.3952 28.9173 42.8378 26.4844H57.6562V42.8906ZM57.6562 24.1406H40.9891C38.1258 21.1556 34.1515 19.4531 30 19.4531C25.848 19.4531 21.8734 21.1561 19.0107 24.1406H2.34375V18.2812C2.34375 17.6351 2.86945 17.1094 3.51562 17.1094C4.5798 17.1094 54.837 17.1094 56.4844 17.1094C57.1305 17.1094 57.6562 17.6351 57.6562 18.2812V24.1406Z" fill="#2C2C2C"/>
<path d="M33.5156 10.0781H26.4844C25.8371 10.0781 25.3125 10.6028 25.3125 11.25C25.3125 11.8972 25.8371 12.4219 26.4844 12.4219H33.5156C34.1627 12.4219 34.6875 11.8972 34.6875 11.25C34.6875 10.6028 34.1627 10.0781 33.5156 10.0781Z" fill="#2C2C2C"/>
<path d="M30 24.1406C24.1845 24.1406 19.4531 28.872 19.4531 34.6875C19.4531 40.503 24.1845 45.2344 30 45.2344C35.8155 45.2344 40.5469 40.503 40.5469 34.6875C40.5469 28.872 35.8155 24.1406 30 24.1406ZM30 42.8906C25.4768 42.8906 21.7969 39.2107 21.7969 34.6875C21.7969 30.1643 25.4768 26.4844 30 26.4844C34.5232 26.4844 38.2031 30.1643 38.2031 34.6875C38.2031 39.2107 34.5232 42.8906 30 42.8906Z" fill="#2C2C2C"/>
<path d="M30 28.8281C26.7691 28.8281 24.1406 31.4566 24.1406 34.6875C24.1406 35.3347 24.6653 35.8594 25.3125 35.8594C25.9597 35.8594 26.4844 35.3347 26.4844 34.6875C26.4844 32.749 28.0615 31.1719 30 31.1719C30.6471 31.1719 31.1719 30.6472 31.1719 30C31.1719 29.3528 30.6471 28.8281 30 28.8281Z" fill="#2C2C2C"/>
<path d="M54.1406 19.4531H51.7969C51.1498 19.4531 50.625 19.9778 50.625 20.625C50.625 21.2722 51.1498 21.7969 51.7969 21.7969H54.1406C54.7877 21.7969 55.3125 21.2722 55.3125 20.625C55.3125 19.9778 54.7877 19.4531 54.1406 19.4531Z" fill="#2C2C2C"/>
</svg>
