<svg width="25" height="23" viewBox="0 0 25 23" fill="none" xmlns="http://www.w3.org/2000/svg">
<path d="M23.9085 0.627223C22.7804 0.0197701 21.5221 1.19129 20.7844 1.88552C19.0923 3.53432 17.6605 5.44346 16.055 7.17904C14.276 9.08817 12.6272 10.9973 10.8049 12.8631C9.76352 13.9045 8.63539 15.0326 7.94116 16.3343C6.37914 14.8156 5.03407 13.1668 3.29849 11.8218C2.04019 10.8672 -0.0425028 10.173 0.000886638 12.4726C0.0876656 15.4666 2.73442 18.6774 4.68695 20.7166C5.51135 21.5844 6.59609 22.4956 7.85438 22.539C9.37301 22.6258 10.935 20.8034 11.8462 19.8054C13.4517 18.0699 14.7534 16.1173 16.2285 14.3384C18.1377 11.9953 20.0902 9.69563 21.956 7.3092C23.1275 5.83396 26.8156 2.18917 23.9085 0.627223ZM1.90995 12.2991C1.86656 12.2991 1.82317 12.2991 1.73639 12.3424C1.56284 12.2991 1.43267 12.2556 1.25911 12.1688C1.38928 12.082 1.60623 12.1254 1.90995 12.2991Z" fill="#046860"/>
</svg>
