<svg width="60" height="60" viewBox="0 0 60 60" fill="none" xmlns="http://www.w3.org/2000/svg">
<path d="M52.5 46.0816V40.3125C52.5 40.17 52.4675 40.0294 52.4051 39.9014C52.3426 39.7734 52.2518 39.6613 52.1395 39.5736C52.0272 39.4859 51.8964 39.425 51.757 39.3954C51.6176 39.3659 51.4734 39.3685 51.3352 39.403L46.3567 40.6475C45.9128 39.7079 45.2115 38.9133 44.3342 38.3562C43.4569 37.7991 42.4396 37.5022 41.4004 37.5H41.2794C44.0545 34.7228 45.7052 31.0178 45.9141 27.0973C46.9759 26.8862 47.9319 26.3142 48.6198 25.4783C49.3077 24.6424 49.685 23.5942 49.6878 22.5116C49.6906 21.4291 49.3185 20.379 48.6349 19.5396C47.9513 18.7002 46.9982 18.1233 45.9375 17.9068V14.0625H45.9361C45.9365 14.0109 45.9325 13.9594 45.9244 13.9084C45.364 10.5459 43.6289 7.4913 41.028 5.28787C38.427 3.08444 35.1287 1.87511 31.7199 1.875H28.2802C24.8713 1.87503 21.5729 3.08432 18.9718 5.28776C16.3708 7.49119 14.6357 10.5459 14.0753 13.9084C14.0671 13.9594 14.0632 14.0109 14.0636 14.0625H14.0625V17.9068C13.0018 18.1233 12.0487 18.7002 11.3651 19.5396C10.6815 20.379 10.3095 21.4291 10.3122 22.5116C10.315 23.5942 10.6924 24.6424 11.3803 25.4783C12.0681 26.3142 13.0242 26.8862 14.0859 27.0973C14.2953 31.0179 15.9464 34.7229 18.7219 37.5H18.5997C17.5604 37.5022 16.5431 37.7991 15.6658 38.3562C14.7885 38.9133 14.0872 39.7079 13.6433 40.6475L8.66485 39.403C8.52664 39.3685 8.38237 39.3659 8.24301 39.3954C8.10364 39.425 7.97285 39.4859 7.86056 39.5736C7.74827 39.6613 7.65743 39.7734 7.59496 39.9014C7.53249 40.0294 7.50001 40.17 7.50001 40.3125V46.0816C6.60225 45.7122 5.61532 45.6165 4.66331 45.8066C3.71131 45.9966 2.83674 46.4638 2.14958 47.1496C2.06252 47.2366 1.99346 47.34 1.94634 47.4537C1.89923 47.5675 1.87498 47.6894 1.87498 47.8125C1.87498 47.9356 1.89923 48.0575 1.94634 48.1713C1.99346 48.285 2.06252 48.3884 2.14958 48.4754L7.77458 54.1004C7.86164 54.1875 7.96499 54.2565 8.07874 54.3036C8.19248 54.3508 8.31439 54.375 8.43751 54.375V57.1875C8.43751 57.4361 8.53628 57.6746 8.7121 57.8504C8.88791 58.0262 9.12637 58.125 9.37501 58.125H50.625C50.8736 58.125 51.1121 58.0262 51.2879 57.8504C51.4637 57.6746 51.5625 57.4361 51.5625 57.1875V54.375C51.6856 54.375 51.8075 54.3508 51.9213 54.3036C52.035 54.2565 52.1384 54.1875 52.2254 54.1004L57.8504 48.4754C57.9375 48.3884 58.0066 48.285 58.0537 48.1713C58.1008 48.0575 58.125 47.9356 58.125 47.8125C58.125 47.6894 58.1008 47.5675 58.0537 47.4537C58.0066 47.34 57.9375 47.2366 57.8504 47.1496C57.1633 46.4638 56.2887 45.9966 55.3367 45.8066C54.3847 45.6165 53.3978 45.7122 52.5 46.0816ZM45.9375 19.8488C46.4856 20.0428 46.96 20.4019 47.2956 20.8767C47.6312 21.3515 47.8114 21.9186 47.8114 22.5C47.8114 23.0814 47.6312 23.6485 47.2956 24.1233C46.96 24.5981 46.4856 24.9572 45.9375 25.1512V19.8488ZM14.0625 25.1512C13.5144 24.9572 13.04 24.5981 12.7044 24.1233C12.3688 23.6485 12.1886 23.0814 12.1886 22.5C12.1886 21.9186 12.3688 21.3515 12.7044 20.8767C13.04 20.4019 13.5144 20.0428 14.0625 19.8488V25.1512ZM44.0625 26.25C44.0644 29.2941 43.0747 32.256 41.2432 34.6875H39.375V24.7632L44.0625 20.0757V26.25ZM30.9926 42.157C32.9179 42.0401 34.8056 41.5719 36.5625 40.7756V40.9559C36.5625 42.6963 35.8711 44.3655 34.6404 45.5962C33.4097 46.827 31.7405 47.5184 30 47.5184C28.2595 47.5184 26.5903 46.827 25.3596 45.5962C24.1289 44.3655 23.4375 42.6963 23.4375 40.9559V40.7753C25.1905 41.57 27.0738 42.0379 28.9949 42.1562L29.1114 40.285C25.8794 40.0846 22.8171 38.769 20.447 36.5625H39.5541C37.1809 38.7718 34.1138 40.0879 30.8775 40.2857L30.9926 42.157ZM22.5 30.9375V29.0625H37.5V34.6875H22.5V32.8125H35.625V30.9375H22.5ZM22.5 27.1875V25.3125H37.5V27.1875H22.5ZM20.1838 6.71836C22.4468 4.80294 25.3153 3.75127 28.2802 3.75H31.7199C34.3828 3.74988 36.9764 4.59849 39.1243 6.17264C41.2721 7.74679 42.8623 9.96454 43.6641 12.5039C34.8612 9.16192 25.1388 9.16192 16.3359 12.5039C17.0481 10.2515 18.3819 8.24602 20.1838 6.71836ZM15.9375 14.6844C20.3938 12.8295 25.1731 11.8745 30 11.8745C34.827 11.8745 39.6062 12.8295 44.0625 14.6844V17.4243L38.0493 23.4375H21.9508L15.9375 17.4243V14.6844ZM15.9375 26.25V20.0757L20.625 24.7632V34.6875H18.7577C16.9259 32.2561 15.9359 29.2942 15.9375 26.25ZM14.0625 56.25H10.3125V54.375H14.0625V56.25ZM15 52.5H8.82587L4.2429 47.917C4.81527 47.6259 5.46503 47.5231 6.09931 47.6234C6.7336 47.7237 7.31996 48.0219 7.77458 48.4754C7.90569 48.6065 8.07274 48.6958 8.2546 48.732C8.43647 48.7682 8.62497 48.7496 8.79628 48.6787C8.96759 48.6077 9.11401 48.4875 9.21702 48.3334C9.32004 48.1792 9.37502 47.9979 9.37501 47.8125V41.5132L15 42.9195V52.5ZM44.0625 54.375V56.25H15.9375V54.375C16.1862 54.375 16.4246 54.2762 16.6004 54.1004C16.7762 53.9246 16.875 53.6861 16.875 53.4375V42.1875C16.875 41.9784 16.8051 41.7753 16.6764 41.6106C16.5478 41.4458 16.3677 41.3287 16.1649 41.278L15.5188 41.1165C15.8397 40.5863 16.2917 40.1475 16.8313 39.8425C17.3708 39.5375 17.9798 39.3765 18.5997 39.375H20.9659C21.1618 39.5102 21.3606 39.6412 21.5625 39.7679V40.9559C21.5623 43.0313 22.3272 45.0339 23.7109 46.5808C25.0946 48.1276 26.9999 49.1101 29.0625 49.3404V53.4375H30.9375V49.3404C33.0001 49.1101 34.9055 48.1276 36.2891 46.5808C37.6728 45.0339 38.4377 43.0313 38.4375 40.9559V39.7689C38.64 39.642 38.8392 39.5107 39.0352 39.375H41.4C42.0198 39.3765 42.6288 39.5375 43.1684 39.8425C43.708 40.1475 44.16 40.5863 44.4809 41.1165L43.8348 41.278C43.632 41.3288 43.4521 41.4459 43.3234 41.6106C43.1948 41.7754 43.125 41.9785 43.125 42.1875V53.4375C43.125 53.6861 43.2238 53.9246 43.3996 54.1004C43.5754 54.2762 43.8139 54.375 44.0625 54.375ZM49.6875 56.25H45.9375V54.375H49.6875V56.25ZM51.1742 52.5H45V42.9195L50.625 41.5132V47.8125C50.625 47.9979 50.68 48.1792 50.783 48.3334C50.886 48.4875 51.0324 48.6077 51.2037 48.6787C51.375 48.7496 51.5636 48.7682 51.7454 48.732C51.9273 48.6958 52.0943 48.6065 52.2254 48.4754C52.6801 48.0219 53.2664 47.7237 53.9007 47.6234C54.535 47.5232 55.1847 47.6259 55.7571 47.917L51.1742 52.5Z" fill="#2C2C2C"/>
<path d="M33.75 19.6875C33.75 19.4389 33.8488 19.2004 34.0246 19.0246C34.2004 18.8488 34.4389 18.75 34.6875 18.75C34.9361 18.75 35.1746 18.8488 35.3504 19.0246C35.5262 19.2004 35.625 19.4389 35.625 19.6875V21.5625H37.5V19.6875C37.5 18.9416 37.2037 18.2262 36.6762 17.6988C36.1488 17.1713 35.4334 16.875 34.6875 16.875C33.9416 16.875 33.2262 17.1713 32.6988 17.6988C32.1713 18.2262 31.875 18.9416 31.875 19.6875V21.5625H33.75V19.6875Z" fill="#2C2C2C"/>
<path d="M24.375 19.6875C24.375 19.4389 24.4738 19.2004 24.6496 19.0246C24.8254 18.8488 25.0639 18.75 25.3125 18.75C25.5611 18.75 25.7996 18.8488 25.9754 19.0246C26.1512 19.2004 26.25 19.4389 26.25 19.6875V21.5625H28.125V19.6875C28.125 18.9416 27.8287 18.2262 27.3012 17.6988C26.7738 17.1713 26.0584 16.875 25.3125 16.875C24.5666 16.875 23.8512 17.1713 23.3238 17.6988C22.7963 18.2262 22.5 18.9416 22.5 19.6875V21.5625H24.375V19.6875Z" fill="#2C2C2C"/>
<path d="M34.6875 50.625H32.8125V52.5H34.6875V50.625Z" fill="#2C2C2C"/>
</svg>
