<svg width="60" height="60" viewBox="0 0 60 60" fill="none" xmlns="http://www.w3.org/2000/svg">
<path d="M15.7909 37.3042C16.0136 37.5713 16.3435 37.7259 16.6913 37.7259C17.0391 37.7259 17.3689 37.5715 17.5915 37.3043L18.2925 36.4631C18.5836 36.1139 18.6466 35.6276 18.4535 35.2158C18.2607 34.804 17.847 34.5409 17.3923 34.5409H15.9903C15.5356 34.5409 15.1219 34.8038 14.929 35.2158C14.7361 35.6276 14.7989 36.1136 15.0899 36.463L15.7909 37.3042Z" fill="#2C2C2C"/>
<path d="M38.6313 22.8402C39.2279 22.8402 39.8245 22.6131 40.2787 22.159C40.7364 21.7014 40.7362 20.9594 40.2786 20.5017C39.8243 20.0471 39.0896 20.0442 38.6312 20.4919C38.1729 20.044 37.4383 20.0475 36.9838 20.5016C36.5262 20.9592 36.5262 21.7012 36.9838 22.159C37.4381 22.6132 38.0346 22.8402 38.6313 22.8402Z" fill="#2C2C2C"/>
<path d="M8.48144 13.8325C8.87707 14.2281 9.403 14.4459 9.96257 14.4459C10.5221 14.4459 11.0481 14.2281 11.4437 13.8325L15.4921 9.7841C17.2448 8.03121 17.2448 5.1791 15.4921 3.42609C13.9946 1.92879 11.6948 1.71023 9.96375 2.77137C9.26332 2.34 8.45542 2.10938 7.61214 2.10938C6.41132 2.10938 5.28234 2.57695 4.4332 3.42609C2.68031 5.17898 2.68031 8.03133 4.4332 9.78422L8.48144 13.8325ZM6.09058 5.08336C6.49687 4.67695 7.03734 4.45312 7.61214 4.45312C8.18695 4.45312 8.72742 4.67695 9.13382 5.08348C9.59156 5.54098 10.3334 5.54098 10.7912 5.08348C11.6302 4.2443 12.9955 4.24441 13.8347 5.08336C14.6737 5.92254 14.6737 7.28789 13.8347 8.12695L9.96257 11.9989L6.09058 8.12695C5.2514 7.28777 5.2514 5.92254 6.09058 5.08336Z" fill="#2C2C2C"/>
<path d="M57.8559 32.9475C59.9603 29.1997 59.6075 24.5467 56.9516 21.1547C58.168 17.6159 57.2836 13.7128 54.6049 11.0341C54.128 10.5572 53.603 10.1302 53.0404 9.76137C51.9308 6.97898 50.0546 4.59621 47.5949 2.85129C44.9652 0.985898 41.8657 0 38.6312 0C35.3967 0 32.2972 0.985898 29.6677 2.85129C27.2079 4.59621 25.3317 6.97898 24.2222 9.76137C23.6596 10.1302 23.1347 10.5572 22.6576 11.0341C19.9787 13.7132 19.0943 17.6166 20.3112 21.1556C19.2339 22.5366 18.5099 24.1746 18.2085 25.8995L14.3864 25.9009C13.473 25.0194 12.42 24.3217 11.2496 23.8238C10.6787 23.5808 10.0387 23.6128 9.49406 23.9116C8.94949 24.2105 8.57871 24.7328 8.47699 25.3445C8.33918 26.1723 8.30297 27.0197 8.36941 27.863C8.40832 28.3566 8.4825 28.8478 8.5909 29.3299C7.57769 30.7665 7.02586 32.4955 7.02586 34.2629C7.02586 34.2648 7.02598 34.2666 7.02598 34.2683C6.9273 32.4175 5.39062 30.942 3.51562 30.942C1.57711 30.942 0 32.5191 0 34.4576V40.1974C0 40.8445 0.524766 41.3693 1.17188 41.3693C1.81898 41.3693 2.34375 40.8445 2.34375 40.1974V34.4576C2.34375 33.8114 2.86945 33.2857 3.51562 33.2857C4.1618 33.2857 4.6875 33.8114 4.6875 34.4576V53.3203C4.6875 53.4045 4.69676 53.4864 4.71363 53.5655C4.84395 55.13 5.48824 56.5504 6.47836 57.6562H5.85938C3.92086 57.6562 2.34375 56.0791 2.34375 54.1406V50.7444C2.34375 50.0973 1.81898 49.5725 1.17188 49.5725C0.524766 49.5725 0 50.0973 0 50.7444V54.1406C0 57.3715 2.62852 60 5.85938 60H49.8791C55.4598 60 60 55.4598 60 49.8791V39.6155C60 37.1303 59.2048 34.8275 57.8559 32.9475ZM24.315 12.6915C24.7536 12.2528 25.2452 11.8698 25.7762 11.5533C26.0064 11.4159 26.1826 11.2039 26.2754 10.9525C28.1754 5.80324 33.1409 2.34375 38.6312 2.34375C44.1218 2.34375 49.0873 5.80324 50.9872 10.9525C51.08 11.2039 51.2563 11.4159 51.4864 11.5533C52.0173 11.8698 52.509 12.2528 52.9477 12.6915C55.1193 14.8631 55.7416 18.0921 54.5331 20.9177C54.3538 21.3371 54.4339 21.8225 54.7389 22.1618C56.9559 24.6294 57.4707 28.1218 56.1737 31.074C54.1446 29.2576 51.4672 28.1514 48.536 28.1514H43.614V26.3216C46.0315 24.7072 47.6273 21.955 47.6273 18.8362V14.4476C47.6273 13.8005 47.1026 13.2757 46.4555 13.2757H43.8558C42.8352 13.2757 41.8822 12.8134 41.248 12.0405C41.638 11.2239 41.857 10.3104 41.857 9.34664C41.857 8.69953 41.3323 8.17477 40.6852 8.17477C40.038 8.17477 39.5133 8.69953 39.5133 9.34664C39.5133 11.5131 37.7507 13.2756 35.5842 13.2756H30.8073C30.1602 13.2756 29.6354 13.8004 29.6354 14.4475V18.8361C29.6354 21.9548 31.2314 24.7071 33.6488 26.3216V28.1514H28.7266C27.3964 28.1514 26.1083 28.3737 24.8811 28.8122C24.9353 28.4978 24.9765 28.1809 25.0015 27.863C25.0679 27.0198 25.0317 26.1724 24.8939 25.3448C24.7922 24.7329 24.4215 24.2106 23.8768 23.9118C23.3321 23.6129 22.6922 23.5808 22.1215 23.8238C21.7764 23.9706 21.4429 24.1369 21.1187 24.318C21.4678 23.5396 21.9379 22.8141 22.5238 22.1619C22.8287 21.8225 22.9089 21.3373 22.7296 20.9179C21.521 18.0922 22.1433 14.8631 24.315 12.6915ZM31.9792 15.6193H35.5842C37.2206 15.6193 38.712 14.9889 39.83 13.9589C40.8862 15.0062 42.3262 15.6193 43.8558 15.6193H45.2836V18.8361C45.2836 22.5041 42.2994 25.4883 38.6313 25.4883C34.9634 25.4883 31.9792 22.5041 31.9792 18.8361V15.6193ZM35.9925 27.4364C36.8273 27.693 37.7134 27.832 38.6313 27.832C39.5493 27.832 40.4353 27.693 41.2703 27.4364V29.5614C41.2703 31.0165 40.0864 32.2003 38.6313 32.2003C37.1763 32.2003 35.9925 31.0165 35.9925 29.5614V27.4364ZM26.3515 52.3726C25.6389 53.1824 25.2054 54.2434 25.2054 55.4043C25.2054 55.6051 25.2198 55.8025 25.2449 55.9965C24.5985 56.7604 23.7296 57.2936 22.7684 57.5252V48.2139C22.7684 47.5668 22.2436 47.042 21.5965 47.042C20.9494 47.042 20.4246 47.5668 20.4246 48.2139V53.4313C20.0261 53.2802 19.5946 53.1968 19.1437 53.1968C18.693 53.1968 18.2616 53.2801 17.863 53.4312V47.3824C17.863 46.7353 17.3382 46.2105 16.6911 46.2105C16.044 46.2105 15.5193 46.7353 15.5193 47.3824V53.4312C15.1208 53.2801 14.6893 53.1968 14.2385 53.1968C13.7586 53.1968 13.3007 53.2914 12.8811 53.4615V48.2138C12.8811 47.5666 12.3564 47.0419 11.7093 47.0419C11.0621 47.0419 10.5374 47.5666 10.5374 48.2138V57.5073C8.52715 56.9869 7.03734 55.1603 7.03113 52.991V45.296C7.03406 43.218 7.68938 41.2405 8.89934 39.5973C10.4688 41.5596 12.8809 42.8201 15.5832 42.8201H17.7989C20.5011 42.8201 22.9132 41.5597 24.4827 39.5974C25.6955 41.2443 26.3514 43.2266 26.3514 45.3102V52.3726H26.3515ZM10.78 30.3214C11.0566 29.9846 11.1144 29.5344 10.9596 29.148C10.8304 28.6695 10.7452 28.1757 10.7059 27.6789C10.6661 27.172 10.6739 26.6636 10.7291 26.1622C11.5966 26.588 12.3734 27.1629 13.0429 27.8754C13.2643 28.1113 13.5734 28.2449 13.8969 28.2449H13.8974L19.4763 28.2427C19.7995 28.2425 20.1084 28.1088 20.3298 27.8734C20.9986 27.1618 21.7747 26.5875 22.6417 26.1621C22.697 26.6634 22.7047 27.1718 22.6649 27.6788C22.6228 28.2127 22.5273 28.7433 22.3811 29.2559C22.2756 29.6258 22.3583 30.0241 22.6025 30.3214C23.5119 31.4282 24.0127 32.828 24.0127 34.2628C24.0127 37.689 21.2252 40.4764 17.799 40.4764H15.5834C12.1571 40.4764 9.36961 37.689 9.36961 34.2628C9.36961 32.8281 9.87059 31.4283 10.78 30.3214ZM7.03125 34.4749C7.0568 35.5165 7.26879 36.5121 7.63605 37.4302C7.42383 37.6733 7.2218 37.9233 7.03125 38.1803V34.4749ZM12.9579 57.6562V56.8214C12.9579 56.1152 13.5323 55.5407 14.2386 55.5407C14.9449 55.5407 15.5194 56.1151 15.5194 56.8214V57.6562H12.9579ZM17.8631 56.8214C17.8631 56.1152 18.4377 55.5407 19.144 55.5407C19.8503 55.5407 20.4247 56.1151 20.4247 56.8214V57.6562H17.8632V56.8214H17.8631ZM27.5491 55.4043C27.5491 54.1625 28.5594 53.1523 29.8011 53.1523H31.2025V57.6562H29.8011C28.5594 57.6562 27.5491 56.646 27.5491 55.4043ZM57.6562 49.8791C57.6562 54.1675 54.1675 57.6562 49.8791 57.6562H33.5462V53.1523H49.2884C49.9355 53.1523 50.4602 52.6275 50.4602 51.9804C50.4602 51.3333 49.9355 50.8085 49.2884 50.8085H29.8011C29.4199 50.8085 29.0497 50.856 28.6952 50.9439V45.3104C28.6952 42.3825 27.6536 39.615 25.7464 37.4299C26.1386 36.4495 26.3565 35.3815 26.3565 34.2628C26.3565 33.1396 26.1329 32.0321 25.7104 31.0051C26.6732 30.6668 27.6833 30.495 28.7265 30.495H33.7376C34.176 32.7975 36.2029 34.5439 38.6311 34.5439C41.0593 34.5439 43.0862 32.7976 43.5247 30.495H48.5358C53.5648 30.495 57.6561 34.5864 57.6561 39.6154V49.8791H57.6562Z" fill="#2C2C2C"/>
<path d="M1.17188 46.6429C1.48008 46.6429 1.78242 46.5177 2.00027 46.2996C2.21824 46.0816 2.34375 45.7793 2.34375 45.4711C2.34375 45.1629 2.21836 44.8605 2.00027 44.6427C1.78242 44.4247 1.48008 44.2992 1.17188 44.2992C0.862383 44.2992 0.561328 44.4246 0.343359 44.6427C0.125273 44.8605 0 45.1617 0 45.4711C0 45.7793 0.125273 46.0816 0.343359 46.2996C0.561445 46.5176 0.863672 46.6429 1.17188 46.6429Z" fill="#2C2C2C"/>
</svg>
