<svg width="21" height="21" viewBox="0 0 21 21" fill="none" xmlns="http://www.w3.org/2000/svg">
<path d="M16.5966 13.0088C16.1667 12.5611 15.6481 12.3218 15.0985 12.3218C14.5534 12.3218 14.0304 12.5567 13.5827 13.0044L12.1821 14.4005C12.0669 14.3384 11.9517 14.2808 11.8409 14.2232C11.6813 14.1434 11.5306 14.0681 11.4021 13.9883C10.0901 13.1551 8.89789 12.0692 7.75438 10.6642C7.20035 9.96387 6.82805 9.37439 6.55769 8.77604C6.92113 8.44363 7.25797 8.09792 7.58596 7.7655C7.71006 7.6414 7.83416 7.51287 7.95826 7.38877C8.88902 6.45801 8.88902 5.25245 7.95826 4.32169L6.74827 3.1117C6.61087 2.9743 6.46904 2.83247 6.33608 2.69064C6.07015 2.41585 5.79092 2.13219 5.50282 1.86625C5.0729 1.44076 4.55877 1.21472 4.01804 1.21472C3.47731 1.21472 2.95431 1.44076 2.51109 1.86625C2.50666 1.87069 2.50666 1.87069 2.50223 1.87512L0.995283 3.39536C0.427962 3.96268 0.104412 4.6541 0.0334966 5.45633C-0.0728761 6.75053 0.308293 7.95609 0.600817 8.74502C1.31883 10.6819 2.39142 12.4769 3.99145 14.4005C5.93275 16.7185 8.26851 18.549 10.9367 19.8388C11.9561 20.3219 13.3168 20.8937 14.837 20.9912C14.9301 20.9956 15.0276 21 15.1163 21C16.1401 21 16.9999 20.6322 17.6736 19.9009C17.6781 19.892 17.6869 19.8876 17.6914 19.8787C17.9218 19.5995 18.1878 19.3468 18.467 19.0765C18.6576 18.8947 18.8526 18.7042 19.0432 18.5047C19.482 18.0482 19.7124 17.5163 19.7124 16.9712C19.7124 16.4216 19.4775 15.8941 19.0299 15.4509L16.5966 13.0088ZM18.1833 17.6759C18.1789 17.6759 18.1789 17.6803 18.1833 17.6759C18.0105 17.862 17.8332 18.0305 17.6426 18.2166C17.3545 18.4914 17.062 18.7795 16.7872 19.1031C16.3395 19.5817 15.8121 19.8078 15.1207 19.8078C15.0542 19.8078 14.9833 19.8078 14.9168 19.8033C13.6004 19.7191 12.3772 19.205 11.4597 18.7662C8.95107 17.5518 6.74827 15.8277 4.91777 13.6426C3.4064 11.821 2.39586 10.1367 1.72659 8.32839C1.3144 7.22478 1.16371 6.36493 1.23019 5.55384C1.27451 5.03527 1.47396 4.60535 1.84183 4.23748L3.35321 2.7261C3.57039 2.52222 3.80086 2.41141 4.0269 2.41141C4.30613 2.41141 4.53217 2.57984 4.674 2.72167C4.67844 2.7261 4.68287 2.73053 4.6873 2.73496C4.95766 2.9876 5.21473 3.2491 5.4851 3.52833C5.62249 3.67016 5.76432 3.81199 5.90615 3.95825L7.11614 5.16824C7.58596 5.63805 7.58596 6.07241 7.11614 6.54222C6.98761 6.67075 6.86351 6.79929 6.73497 6.92339C6.36267 7.30456 6.00809 7.65913 5.62249 8.00484C5.61363 8.01371 5.60476 8.01814 5.60033 8.027C5.21916 8.40817 5.29008 8.78048 5.36986 9.03311C5.37429 9.04641 5.37872 9.0597 5.38316 9.073C5.69784 9.83534 6.14106 10.5534 6.81475 11.4088L6.81919 11.4132C8.04247 12.9201 9.33224 14.0947 10.755 14.9944C10.9367 15.1096 11.1228 15.2027 11.3001 15.2914C11.4597 15.3711 11.6104 15.4465 11.7389 15.5263C11.7566 15.5351 11.7744 15.5484 11.7921 15.5573C11.9428 15.6326 12.0846 15.6681 12.2309 15.6681C12.5988 15.6681 12.8292 15.4376 12.9046 15.3623L14.4204 13.8465C14.5711 13.6958 14.8104 13.5141 15.0897 13.5141C15.3645 13.5141 15.5905 13.6869 15.7279 13.8376C15.7323 13.842 15.7323 13.842 15.7368 13.8465L18.1789 16.2886C18.6354 16.7407 18.6354 17.2061 18.1833 17.6759Z" fill="#046860"/>
<path d="M11.3489 4.99532C12.5101 5.19034 13.565 5.73993 14.4071 6.58205C15.2492 7.42416 15.7944 8.47903 15.9938 9.64026C16.0426 9.93279 16.2952 10.1367 16.5833 10.1367C16.6188 10.1367 16.6498 10.1322 16.6853 10.1278C17.0133 10.0746 17.2304 9.76436 17.1772 9.43638C16.9379 8.03138 16.2731 6.75047 15.2581 5.7355C14.2431 4.72053 12.9622 4.0557 11.5572 3.81636C11.2292 3.76317 10.9234 3.98035 10.8658 4.3039C10.8082 4.62745 11.0209 4.94214 11.3489 4.99532Z" fill="#046860"/>
<path d="M20.9756 9.26354C20.5811 6.94994 19.4908 4.84465 17.8155 3.16928C16.1401 1.49391 14.0348 0.403587 11.7212 0.00912211C11.3976 -0.0484964 11.0918 0.173113 11.0342 0.496663C10.981 0.824646 11.1982 1.13047 11.5262 1.18809C13.5916 1.53823 15.4753 2.51774 16.9733 4.01139C18.4714 5.50947 19.4465 7.39316 19.7966 9.45856C19.8454 9.75108 20.098 9.95497 20.3861 9.95497C20.4216 9.95497 20.4526 9.95053 20.4881 9.9461C20.8116 9.89735 21.0332 9.58709 20.9756 9.26354Z" fill="#046860"/>
</svg>
