<svg width="60" height="60" viewBox="0 0 60 60" fill="none" xmlns="http://www.w3.org/2000/svg">
<g clip-path="url(#clip0)">
<path d="M47.1644 59.1191V36.0121C47.1644 35.5256 46.7701 35.1312 46.2836 35.1312C45.797 35.1312 45.4027 35.5256 45.4027 36.0121V39.032H41.5812C41.0947 39.032 40.7003 39.4263 40.7003 39.9128C40.7003 40.3993 41.0947 40.7936 41.5812 40.7936H45.4027V44.0802H41.5812C41.0947 44.0802 40.7003 44.4746 40.7003 44.9611C40.7003 45.4475 41.0947 45.8419 41.5812 45.8419H45.4027V49.1285H41.5812C41.0947 49.1285 40.7003 49.5229 40.7003 50.0094C40.7003 50.4958 41.0947 50.8902 41.5812 50.8902H45.4027V54.1768H41.5812C41.0947 54.1768 40.7003 54.5712 40.7003 55.0576C40.7003 55.5441 41.0947 55.9385 41.5812 55.9385H45.4027V58.2382H37.2946V3.52922C37.2946 2.55466 38.0875 1.76167 39.0622 1.76167H43.6353C44.61 1.76167 45.4028 2.55454 45.4028 3.52922V32.4888C45.4028 32.9753 45.7971 33.3697 46.2837 33.3697C46.7702 33.3697 47.1645 32.9753 47.1645 32.4888V3.52922C47.1645 1.58327 45.5812 -1.52588e-05 43.6353 -1.52588e-05H39.0622C37.3041 -1.52588e-05 35.8425 1.29224 35.5765 2.97676L18.4576 4.38082C15.4364 4.58459 13.071 7.11425 13.071 10.1432V11.0044C13.071 11.4909 13.4653 11.8852 13.9518 11.8852H17.1501L13.1234 18.8594C12.7397 19.5243 12.7397 20.3501 13.1235 21.015L17.1642 28.0137H13.9517C13.4652 28.0137 13.0709 28.4081 13.0709 28.8945V29.7558C13.0709 32.7847 15.4366 35.3143 18.4578 35.5181L23.5205 35.9334C23.545 35.9354 23.5693 35.9363 23.5934 35.9363C24.0472 35.9363 24.4327 35.5878 24.4704 35.1275C24.5102 34.6427 24.1494 34.2174 23.6646 34.1776L18.5951 33.7617C18.5905 33.7614 18.5858 33.761 18.5812 33.7607C16.4857 33.6219 14.8428 31.8732 14.8326 29.7753H35.5329V35.1509L27.2219 34.4692C26.7366 34.4296 26.3118 34.7903 26.272 35.2751C26.2322 35.7599 26.593 36.1852 27.0778 36.225L35.5328 36.9184V59.1189C35.5328 59.6054 35.9271 59.9998 36.4137 59.9998H46.2834C46.77 60 47.1644 59.6056 47.1644 59.1191ZM18.5812 6.13816C18.5858 6.13792 18.5905 6.13757 18.5951 6.13722L35.5329 4.74807V10.1237H14.8326C14.8427 8.02563 16.4857 6.27686 18.5812 6.13816ZM25.4291 22.7668H22.1619L20.5282 19.9372L22.1619 17.1076H25.4291L27.0628 19.9371L25.4291 22.7668ZM25.197 15.3459H22.166L20.2009 11.8852H27.162L25.197 15.3459ZM20.6384 16.223L19.0026 19.0564H15.044L18.6755 12.7663L20.6384 16.223ZM19.0025 20.818L20.6857 23.7335L18.723 27.1904L15.0439 20.8181H19.0025V20.818ZM22.2603 24.5285H25.2915L27.2703 28.0137H20.2815L22.2603 24.5285ZM26.8853 23.7679L28.5884 20.818H32.5469L28.8481 27.2246L26.8853 23.7679ZM28.5885 19.0564L26.8377 16.024L28.8005 12.5674L32.5469 19.0564H28.5885ZM30.4266 28.0137L34.4672 21.0151C34.8513 20.3502 34.8514 19.5243 34.4674 18.8594L30.4409 11.8852H35.5329V28.0137H30.4266Z" fill="black"/>
<path d="M39.8675 12.9085C39.381 12.9085 38.9867 13.3029 38.9867 13.7894V26.1661C38.9867 26.6526 39.381 27.047 39.8675 27.047H43.1073C43.5938 27.047 43.9881 26.6526 43.9881 26.1661V13.7894C43.9881 13.3029 43.5938 12.9085 43.1073 12.9085H39.8675ZM42.2264 25.2852H40.7484V14.6701H42.2264V25.2852Z" fill="black"/>
</g>
<defs>
<clipPath id="clip0">
<rect width="60" height="60" fill="white"/>
</clipPath>
</defs>
</svg>
