<svg width="30" height="28" viewBox="0 0 30 28" fill="none" xmlns="http://www.w3.org/2000/svg">
<path d="M22.5743 6.14364L10.2363 13.7427C9.53806 14.1737 9.20765 15.025 9.43259 15.8124L10.7667 20.4999C10.8806 20.8995 11.2363 21.1652 11.6455 21.1652C11.6683 21.1652 11.6913 21.1644 11.7144 21.1627C12.1519 21.1309 12.498 20.8051 12.5562 20.3708L12.9031 17.8005C12.9499 17.4547 13.1165 17.133 13.3719 16.8952L23.5535 7.43095C23.8611 7.14565 23.9018 6.67849 23.6483 6.34433C23.3943 6.00987 22.9329 5.92339 22.5743 6.14364ZM12.5578 16.0201C12.1003 16.446 11.8022 17.0215 11.7186 17.6406L11.5503 18.8873L10.582 15.4847C10.5033 15.209 10.6192 14.911 10.8635 14.7601L19.9021 9.19333L12.5578 16.0201Z" fill="#2C2C2C"/>
<path d="M29.5117 1.19042C29.1262 0.863697 28.5943 0.773756 28.1231 0.955748L0.883335 11.4641C0.343863 11.6721 -0.00301229 12.1801 -0.00025838 12.7581C0.00255412 13.3367 0.354527 13.8418 0.897163 14.0451L7.25986 16.4199L9.74183 24.4018C9.87812 24.8406 10.2221 25.1816 10.6619 25.3139C11.1015 25.4461 11.5762 25.3515 11.9311 25.0613L15.6307 22.0453C15.8083 21.9005 16.062 21.8933 16.2476 22.0281L22.9204 26.8726C23.1604 27.0471 23.4437 27.137 23.7303 27.137C23.8982 27.137 24.0672 27.1061 24.2294 27.0434C24.668 26.8738 24.987 26.4978 25.0825 26.0378L29.9709 2.5236C30.0736 2.02848 29.8976 1.51766 29.5117 1.19042ZM28.8007 2.28073L23.9123 25.7949C23.8946 25.8798 23.8335 25.9152 23.7985 25.9287C23.7634 25.9423 23.6939 25.9573 23.6229 25.9057L16.9499 21.0608C16.6516 20.8443 16.3008 20.7368 15.9507 20.7368C15.5688 20.7368 15.1874 20.8648 14.8757 21.1187L11.1753 24.1354C11.1094 24.1893 11.041 24.1797 11.0062 24.1692C10.9712 24.1587 10.9087 24.1288 10.8832 24.047L8.31419 15.7849C8.25929 15.6084 8.1257 15.4672 7.9525 15.4025L1.31587 12.9256C1.2165 12.8884 1.19535 12.8108 1.19505 12.7523C1.19476 12.6943 1.21515 12.6171 1.31359 12.5792L28.5534 2.0709C28.5535 2.07085 28.5537 2.07079 28.5539 2.07073C28.6424 2.03657 28.7078 2.07583 28.739 2.10219C28.7703 2.12885 28.8201 2.18745 28.8007 2.28073Z" fill="#2C2C2C"/>
</svg>
