<svg width="30" height="30" viewBox="0 0 30 30" fill="none" xmlns="http://www.w3.org/2000/svg">
<path d="M18.1256 0H11.8744C5.32681 0 0 4.86844 0 10.8521V15.9995C0 20.4557 2.99563 24.4604 7.5 26.0918V29.4287C7.5 29.6546 7.64556 29.8594 7.87169 29.9509C7.95288 29.9838 8.03925 30 8.125 30C8.277 30 8.42744 29.9493 8.54463 29.8522L12.1686 26.8517H18.1256C24.6732 26.8517 30 21.9832 30 15.9995V10.8521C30 4.86844 24.6732 0 18.1256 0ZM28.75 15.9995C28.75 21.3534 23.9841 25.709 18.1256 25.709H11.9275C11.7724 25.709 11.6229 25.7615 11.5079 25.8569L8.75 28.1405V25.6957C8.75 25.4535 8.58306 25.2376 8.33313 25.1573C4.09669 23.7881 1.25 20.1081 1.25 15.9995V10.8521C1.25 5.49831 6.01594 1.14262 11.8744 1.14262H18.1256C23.9841 1.14262 28.75 5.49831 28.75 10.8521V15.9995Z" fill="#2C2C2C"/>
<path d="M23.2599 17.4211L19.4183 15.1403C18.9981 14.8909 18.4986 14.806 18.0087 14.8987C17.5186 14.993 17.0977 15.2574 16.8243 15.643L16.6437 15.8968C14.9811 15.3947 13.1479 14.753 12.0505 11.849L12.5049 11.4881H12.5052C13.2849 10.8682 13.367 9.78364 12.6886 9.0695L9.68355 5.9094C9.45705 5.67122 9.06218 5.64666 8.80155 5.85307L6.91499 7.35219C5.25968 8.66724 6.0333 10.6127 6.28755 11.2521C6.2988 11.2805 6.31255 11.3079 6.32874 11.3346C6.39436 11.4423 7.96143 13.9982 10.4916 16.3543C13.0322 18.7199 17.6193 20.9047 17.76 20.9683C18.284 21.2791 18.8733 21.428 19.4562 21.428C20.4797 21.428 21.4837 20.9694 22.0822 20.128L23.4436 18.2116C23.6315 17.9466 23.5492 17.5928 23.2599 17.4211ZM21.0339 19.5054C20.4706 20.2982 19.3072 20.5236 18.3881 19.9819C18.3423 19.9601 13.7857 17.7909 11.3837 15.5542C9.1388 13.4637 7.6483 11.1416 7.44474 10.8175C6.94943 9.54877 7.03705 8.76876 7.73468 8.21476L9.15005 7.09053L11.745 9.81935C11.9754 10.0615 11.9489 10.4157 11.6849 10.6255L10.918 11.2348C10.7312 11.3832 10.6576 11.6181 10.7306 11.834C12.0382 15.7177 14.5807 16.4804 16.4371 17.0378L16.7074 17.1192C16.9779 17.2029 17.2745 17.1075 17.4292 16.8888L17.8726 16.265C17.9642 16.1361 18.1039 16.0485 18.2663 16.0173C18.4292 15.9855 18.5959 16.0151 18.7372 16.0987L22.0547 18.0682L21.0339 19.5054Z" fill="#2C2C2C"/>
<path d="M16.4264 9.28215C16.0937 9.19451 15.7483 9.37139 15.654 9.67544C15.5597 9.97898 15.7522 10.2947 16.084 10.3812C17.0154 10.6234 17.7569 11.3029 18.0197 12.1549C18.0972 12.4065 18.3481 12.5711 18.6209 12.5711C18.6771 12.5711 18.7341 12.5644 18.7909 12.5499C19.1229 12.464 19.3164 12.1487 19.2227 11.8447C18.8434 10.6139 17.7716 9.63197 16.4264 9.28215Z" fill="#2C2C2C"/>
<path d="M21.1829 12.6937C21.239 12.6937 21.2961 12.6871 21.3529 12.6725C21.6852 12.5866 21.8784 12.2709 21.7847 11.9674C21.0474 9.57775 18.9664 7.67134 16.3541 6.99182C16.0221 6.90424 15.6762 7.0822 15.582 7.38517C15.4877 7.68865 15.6802 8.00442 16.0122 8.09091C18.2101 8.66222 19.9612 10.2668 20.5817 12.2775C20.6595 12.5292 20.9101 12.6937 21.1829 12.6937Z" fill="#2C2C2C"/>
<path d="M16.0849 4.33181C15.7523 4.24423 15.4068 4.4211 15.3125 4.72516C15.2182 5.02869 15.4107 5.34446 15.7425 5.43096C19.4672 6.3995 22.4338 9.11769 23.4848 12.5244C23.5623 12.776 23.8132 12.9406 24.086 12.9406C24.1421 12.9406 24.1993 12.9339 24.256 12.9194C24.588 12.8334 24.7815 12.5177 24.6878 12.2141C23.5199 8.42863 20.2234 5.40862 16.0849 4.33181Z" fill="#2C2C2C"/>
</svg>
