<svg width="60" height="60" viewBox="0 0 60 60" fill="none" xmlns="http://www.w3.org/2000/svg">
<path d="M56.4852 0H11.9541C10.0156 0 8.43847 1.5771 8.43847 3.51561V33.0077C8.15476 33.2115 7.88336 33.4386 7.63117 33.6896C6.76985 34.547 6.20044 35.5748 5.97251 36.6596C3.63744 37.0923 1.77018 38.9263 1.29253 41.2501H1.17288C0.525653 41.2501 0.00100708 41.7747 0.00100708 42.4219V47.1094C0.00100708 47.7566 0.525653 48.2813 1.17288 48.2813V51.797C1.17288 56.3202 4.85278 60.0001 9.37597 60.0001H21.0947C23.3244 60.0001 25.3481 59.1047 26.8282 57.6561H58.8289C59.4761 57.6561 60.0008 57.1315 60.0008 56.4843V3.51561C60.0008 1.5771 58.4237 0 56.4852 0V0ZM11.9541 2.34374H56.4852C57.1313 2.34374 57.657 2.86944 57.657 3.51561V11.7187H10.7822V3.51561C10.7822 2.86944 11.3079 2.34374 11.9541 2.34374ZM7.03211 38.9062C7.67934 38.9062 8.20398 38.3816 8.20398 37.7343C8.20398 36.8908 8.58777 36.0443 9.28456 35.3506C9.98675 34.6517 10.9129 34.2186 11.7042 34.2186H11.7142C13.2767 34.2259 14.6902 35.3539 15.1516 36.9622C15.3093 37.5117 15.8407 37.8671 16.4085 37.8036C17.7708 37.651 19.0567 38.2821 19.7766 39.4168C20.0901 39.9111 20.7206 40.0981 21.253 39.8548C21.7118 39.6452 22.2026 39.539 22.7116 39.539C23.9905 39.539 25.1177 40.2123 25.7335 41.25H3.71994C4.20638 39.8881 5.51302 38.9062 7.03211 38.9062ZM17.8134 34.6874C17.8134 25.641 25.1732 18.2812 34.2196 18.2812C43.266 18.2812 50.6258 25.641 50.6258 34.6874C50.6258 43.7337 43.266 51.0935 34.2196 51.0935C32.5429 51.0935 30.8909 50.8391 29.2978 50.3375V48.2812C29.538 48.2812 29.7612 48.2086 29.9472 48.0845C31.3273 48.5257 32.7597 48.7497 34.2196 48.7497C41.9736 48.7497 48.2821 42.4413 48.2821 34.6872C48.2821 29.1594 45.0205 24.1258 39.9729 21.8631C39.3821 21.5983 38.6889 21.8626 38.4242 22.4532C38.1594 23.0438 38.4237 23.7372 39.0142 24.0019C42.7876 25.6933 45.3618 29.2432 45.8517 33.281C45.7159 33.2191 45.58 33.1471 45.4287 33.0667C44.8229 32.7444 44.069 32.3435 42.7466 32.3435C41.4243 32.3435 40.6704 32.7445 40.0646 33.0667C39.5565 33.3369 39.2209 33.5154 38.4831 33.5154C37.7453 33.5154 37.4096 33.3369 36.9016 33.0667C36.2958 32.7445 35.5418 32.3435 34.2195 32.3435C32.8972 32.3435 32.1432 32.7445 31.5374 33.0667C31.0294 33.3369 30.6938 33.5154 29.956 33.5154C29.2182 33.5154 28.8825 33.3369 28.3744 33.0667C27.7687 32.7445 27.0147 32.3435 25.6924 32.3435C24.37 32.3435 23.6161 32.7445 23.0103 33.0667C22.8382 33.1582 22.6857 33.2389 22.5309 33.306C22.863 29.1231 25.4075 25.5969 29.4011 23.9161C29.9976 23.665 30.2777 22.9779 30.0265 22.3814C29.7754 21.785 29.0883 21.5048 28.4919 21.756C25.9714 22.8169 23.857 24.553 22.377 26.7768C20.8299 29.1015 20.0625 31.8504 20.1576 34.726C20.1799 35.3982 20.2291 36.0139 20.3042 36.5935C19.5798 36.0532 18.7365 35.6881 17.835 35.529C17.8208 35.2483 17.8134 34.9671 17.8134 34.6874ZM2.34475 45.9374V43.5937H28.1259V45.9374H2.34475ZM22.7791 37.1968C22.6854 36.7461 22.6159 36.2655 22.5681 35.7445C23.2325 35.6021 23.7055 35.3517 24.1111 35.136C24.6191 34.8657 24.9547 34.6872 25.6926 34.6872C26.4305 34.6872 26.7661 34.8657 27.2741 35.136C27.8798 35.4582 28.6338 35.8591 29.9561 35.8591C31.2785 35.8591 32.0323 35.4581 32.6382 35.136C33.1462 34.8657 33.4818 34.6872 34.2197 34.6872C34.9575 34.6872 35.2932 34.8657 35.8012 35.136C36.4069 35.4582 37.1609 35.8591 38.4832 35.8591C39.8056 35.8591 40.5594 35.4581 41.1653 35.136C41.6733 34.8657 42.0089 34.6872 42.7467 34.6872C43.4845 34.6872 43.8203 34.8657 44.3283 35.136C44.7376 35.3537 45.2155 35.6069 45.8898 35.7486C45.3516 41.7148 40.3235 46.4061 34.2196 46.4061C32.936 46.4061 31.6779 46.1983 30.4696 45.7892V42.4219C30.4696 41.7747 29.945 41.2501 29.2978 41.2501H28.2877C27.5287 38.8759 25.3415 37.2254 22.7791 37.1968ZM9.37597 57.6563C6.14512 57.6563 3.51662 55.0278 3.51662 51.7969V48.2812H26.954V51.7969C26.954 55.0278 24.3255 57.6563 21.0947 57.6563H9.37597ZM28.5049 55.3123C28.8806 54.5235 29.1325 53.6655 29.2389 52.7633C30.8593 53.2105 32.5284 53.4373 34.2196 53.4373C44.5583 53.4373 52.9695 45.0262 52.9695 34.6874C52.9695 24.3485 44.5583 15.9374 34.2196 15.9374C24.334 15.9374 16.2116 23.6278 15.5186 33.3401C14.474 32.4261 13.1384 31.8816 11.725 31.875C11.7183 31.875 11.7115 31.875 11.7048 31.875C11.4008 31.875 11.0917 31.9083 10.7822 31.9691V14.0624H57.657V55.3123H28.5049Z" fill="#2C2C2C"/>
<path d="M42.4217 10.5469C44.3602 10.5469 45.9373 8.96975 45.9373 7.03124C45.9373 5.09272 44.3602 3.51561 42.4217 3.51561C40.4832 3.51561 38.9061 5.09272 38.9061 7.03124C38.9061 8.96975 40.4832 10.5469 42.4217 10.5469ZM42.4217 5.85936C43.0679 5.85936 43.5936 6.38506 43.5936 7.03124C43.5936 7.67741 43.0679 8.20311 42.4217 8.20311C41.7756 8.20311 41.2498 7.67741 41.2498 7.03124C41.2498 6.38506 41.7756 5.85936 42.4217 5.85936Z" fill="#2C2C2C"/>
<path d="M51.7968 10.5469C53.7353 10.5469 55.3124 8.96975 55.3124 7.03124C55.3124 5.09272 53.7353 3.51561 51.7968 3.51561C49.8583 3.51561 48.2812 5.09272 48.2812 7.03124C48.2812 8.96975 49.8583 10.5469 51.7968 10.5469ZM51.7968 5.85936C52.443 5.85936 52.9687 6.38506 52.9687 7.03124C52.9687 7.67741 52.443 8.20311 51.7968 8.20311C51.1506 8.20311 50.6249 7.67741 50.6249 7.03124C50.6249 6.38506 51.1506 5.85936 51.7968 5.85936Z" fill="#2C2C2C"/>
<path d="M14.2979 8.20312C14.9451 8.20312 15.4698 7.67848 15.4698 7.03125C15.4698 6.38402 14.9451 5.85938 14.2979 5.85938H14.2971C13.6499 5.85938 13.1256 6.38402 13.1256 7.03125C13.1256 7.67848 13.6507 8.20312 14.2979 8.20312Z" fill="#2C2C2C"/>
<path d="M18.9854 8.20312C19.6327 8.20312 20.1573 7.67848 20.1573 7.03125C20.1573 6.38402 19.6327 5.85938 18.9854 5.85938H18.9846C18.3374 5.85938 17.8131 6.38402 17.8131 7.03125C17.8131 7.67848 18.3382 8.20312 18.9854 8.20312Z" fill="#2C2C2C"/>
<path d="M23.6729 8.20312C24.3202 8.20312 24.8448 7.67848 24.8448 7.03125C24.8448 6.38402 24.3202 5.85938 23.6729 5.85938H23.6721C23.0249 5.85938 22.5006 6.38402 22.5006 7.03125C22.5006 7.67848 23.0257 8.20312 23.6729 8.20312Z" fill="#2C2C2C"/>
<path d="M34.2197 22.9687C34.8669 22.9687 35.3916 22.444 35.3916 21.7968C35.3916 21.1496 34.8669 20.6249 34.2197 20.6249H34.2189C33.5716 20.6249 33.0475 21.1496 33.0475 21.7968C33.0475 22.444 33.5725 22.9687 34.2197 22.9687Z" fill="#2C2C2C"/>
</svg>
