<svg width="30" height="30" viewBox="0 0 30 30" fill="none" xmlns="http://www.w3.org/2000/svg">
<path d="M15 0C6.7287 0 0 6.72871 0 15C0 17.8215 0.784255 20.5608 2.27104 22.9394C1.67895 25.0156 0.608466 28.9419 0.597216 28.9831C0.542005 29.1859 0.601154 29.4028 0.752697 29.5492C0.904255 29.6952 1.12343 29.747 1.32339 29.6862L7.26899 27.8568C9.59808 29.2597 12.2653 30 15 30C23.2713 30 30 23.2713 30 15C30 6.72871 23.2713 0 15 0ZM15 28.8462C12.3931 28.8462 9.85331 28.1177 7.65495 26.7396C7.56195 26.6815 7.4555 26.6517 7.34843 26.6517C7.29154 26.6517 7.23408 26.6601 7.17887 26.677L1.98708 28.2749C2.36854 26.8827 3.05365 24.3925 3.45137 23.0076C3.49758 22.8471 3.47168 22.6741 3.38099 22.5338C1.92404 20.2921 1.15385 17.6868 1.15385 15C1.15385 7.36535 7.36533 1.15385 15 1.15385C22.6346 1.15385 28.8462 7.36535 28.8462 15C28.8462 22.6347 22.6346 28.8462 15 28.8462Z" fill="#2C2C2C"/>
<path d="M24.7992 18.5342C23.7343 17.9426 22.8273 17.3499 22.1653 16.9172C21.6599 16.5871 21.2948 16.3487 21.0272 16.2147C20.279 15.8411 19.7117 16.1053 19.4959 16.3228C19.4689 16.3498 19.4446 16.3791 19.4238 16.4107C18.6469 17.5764 17.6316 18.6919 17.3347 18.7516C16.9916 18.6981 15.3848 17.7848 13.7875 16.4547C12.1571 15.0957 11.1316 13.7948 10.9807 12.9092C12.0269 11.8325 12.4038 11.1553 12.4038 10.3846C12.4038 9.59013 10.5508 6.27339 10.2156 5.9382C9.8792 5.60237 9.12198 5.54999 7.96363 5.78041C7.85211 5.80297 7.74954 5.8576 7.66901 5.9382C7.52869 6.07845 4.24859 9.42282 5.8075 13.4765C7.51854 17.9251 11.9108 23.096 17.5105 23.9361C18.1466 24.0313 18.7432 24.0786 19.3021 24.0786C22.5963 24.0786 24.5406 22.4211 25.0882 19.1331C25.1283 18.8925 25.0128 18.6525 24.7992 18.5342ZM17.6817 22.7946C11.7604 21.9067 8.03009 16.04 6.88473 13.0618C5.74836 10.1079 7.84421 7.47461 8.37042 6.87905C8.79863 6.80641 9.24879 6.77595 9.43692 6.80526C9.82963 7.35178 11.1902 9.92198 11.25 10.3846C11.25 10.6877 11.1514 11.1091 9.9767 12.2844C9.86852 12.3925 9.80767 12.539 9.80767 12.6922C9.80767 15.7132 16.1791 19.9038 17.3077 19.9038C18.2891 19.9038 19.5686 18.2541 20.297 17.1797C20.3393 17.1814 20.4103 17.1961 20.5111 17.2468C20.7191 17.351 21.0791 17.5859 21.5343 17.8834C22.1355 18.2761 22.9338 18.7978 23.8763 19.3381C23.4482 21.3979 22.2521 23.4814 17.6817 22.7946Z" fill="#2C2C2C"/>
</svg>
