<svg width="60" height="60" viewBox="0 0 60 60" fill="none" xmlns="http://www.w3.org/2000/svg">
<g clip-path="url(#clip0)">
<path d="M36.3286 22.9688C30.6422 22.9688 26.0161 27.5949 26.0161 33.2812C26.0161 38.9676 30.6422 43.5938 36.3286 43.5938C42.0149 43.5938 46.6411 38.9676 46.6411 33.2812C46.6411 27.5949 42.0149 22.9688 36.3286 22.9688ZM36.3286 41.25C31.9345 41.25 28.3598 37.6753 28.3598 33.2812C28.3598 28.8872 31.9345 25.3125 36.3286 25.3125C40.7226 25.3125 44.2973 28.8872 44.2973 33.2812C44.2973 37.6753 40.7226 41.25 36.3286 41.25Z" fill="#2C2C2C"/>
<path d="M36.3286 28.0083C35.6813 28.0083 35.1567 28.5329 35.1567 29.1802C35.1567 29.8274 35.6813 30.352 36.3286 30.352C37.9436 30.352 39.2578 31.6663 39.2578 33.2813C39.2578 33.9285 39.7824 34.4531 40.4297 34.4531C41.077 34.4531 41.6016 33.9285 41.6016 33.2813C41.6016 30.3735 39.2363 28.0083 36.3286 28.0083Z" fill="#2C2C2C"/>
<path d="M7.22398 12.1175C6.92643 11.543 6.21964 11.3182 5.64469 11.6153C5.06974 11.9128 4.84498 12.6201 5.14252 13.195L8.29697 19.2888C8.50114 19.6834 8.91404 19.9246 9.35532 19.9219C9.79935 19.915 10.2017 19.6578 10.394 19.2572L12.3038 15.2811L14.3779 19.2888C14.5798 19.6779 14.9812 19.9219 15.4189 19.9219H15.4363C15.8807 19.915 16.2827 19.6578 16.4754 19.2572L19.4019 13.1635C19.682 12.5803 19.4362 11.8799 18.853 11.5997C18.2694 11.3196 17.5694 11.5654 17.2893 12.1491L15.3795 16.1252L13.3049 12.1175C13.1007 11.7229 12.6888 11.4807 12.247 11.4844C11.8025 11.4912 11.4002 11.7485 11.2079 12.1491L9.29856 16.1252L7.22398 12.1175Z" fill="#2C2C2C"/>
<path d="M14.7643 5.625C15.0728 5.625 15.3749 5.49957 15.5928 5.28168C15.8112 5.06378 15.9361 4.7612 15.9361 4.45312C15.9361 4.14505 15.8112 3.84247 15.5928 3.62457C15.3749 3.40668 15.0728 3.28125 14.7643 3.28125C14.4562 3.28125 14.1541 3.40668 13.9362 3.62457C13.7178 3.84247 13.5924 4.14505 13.5924 4.45312C13.5924 4.7612 13.7178 5.06378 13.9362 5.28168C14.1541 5.49957 14.4562 5.625 14.7643 5.625Z" fill="#2C2C2C"/>
<path d="M60 23.4375V7.96875C60 5.38422 57.897 3.28125 55.3125 3.28125H19.6861C19.0393 3.28125 18.5143 3.80585 18.5143 4.45312C18.5143 5.1004 19.0393 5.625 19.6861 5.625H55.3125C56.6048 5.625 57.6562 6.67648 57.6562 7.96875V23.4375C57.6562 24.7298 56.6048 25.7812 55.3125 25.7812H49.6875C49.6536 25.7812 49.6207 25.7835 49.5877 25.7863C47.7791 22.5993 44.8553 20.1256 41.3503 18.8983L43.0875 15.2815L45.162 19.2888C45.3635 19.6783 45.7649 19.9219 46.2025 19.9219H46.2204C46.6644 19.915 47.0668 19.6577 47.2591 19.2572L50.1855 13.1635C50.4657 12.5803 50.2199 11.8803 49.6367 11.6002C49.0535 11.3196 48.3531 11.5654 48.073 12.149L46.1636 16.1252L44.0891 12.1175C43.8849 11.7229 43.4734 11.4807 43.0307 11.4848C42.5862 11.4912 42.1843 11.7485 41.992 12.149L40.0822 16.1252L38.0081 12.1175C37.7106 11.543 37.0033 11.3182 36.4284 11.6158C35.8534 11.9133 35.6291 12.6201 35.9262 13.195L38.5199 18.2053C37.8044 18.1018 37.0729 18.0469 36.329 18.0469C34.8885 18.0469 33.4937 18.2483 32.1716 18.6237L34.7942 13.1635C35.0743 12.5803 34.8285 11.8803 34.2448 11.6002C33.6617 11.3196 32.9613 11.5654 32.6816 12.149L30.7718 16.1252L28.6972 12.1175C28.493 11.7229 28.0833 11.4807 27.6389 11.4848C27.1948 11.4912 26.7924 11.7485 26.6002 12.149L24.6909 16.1252L22.6163 12.1175C22.3187 11.543 21.6119 11.3182 21.037 11.6158C20.462 11.9133 20.2373 12.6201 20.5348 13.195L23.6893 19.2888C23.8934 19.6834 24.3045 19.9246 24.7476 19.9219C25.1917 19.915 25.594 19.6577 25.7863 19.2572L27.6961 15.2815L29.7702 19.2888C29.805 19.3561 29.8476 19.417 29.8938 19.4751C27.02 20.82 24.6323 23.0356 23.0727 25.7812H4.6875C3.39523 25.7812 2.34375 24.7298 2.34375 23.4375V7.96875C2.34375 6.67648 3.39523 5.625 4.6875 5.625H9.49127C10.1385 5.625 10.6631 5.1004 10.6631 4.45312C10.6631 3.80585 10.1385 3.28125 9.49127 3.28125H4.6875C2.10297 3.28125 0 5.38422 0 7.96875V23.4375C0 26.0225 2.10297 28.125 4.6875 28.125H21.9933C21.4119 29.7363 21.0942 31.4722 21.0942 33.2812C21.0942 41.6817 27.9282 48.5156 36.3286 48.5156C39.0889 48.5156 41.6803 47.7777 43.9156 46.4886L53.2164 55.7895C53.9909 56.564 55.0085 56.9513 56.0262 56.9513C57.0438 56.9513 58.0614 56.564 58.8359 55.7895C60.3854 54.24 60.3854 51.7191 58.8359 50.1695L55.1816 46.5152C54.7238 46.0579 53.9818 46.0574 53.5245 46.5152C53.0667 46.973 53.0667 47.7145 53.5245 48.1723L57.1788 51.8271C57.8142 52.4625 57.8142 53.4966 57.1788 54.1324C56.5434 54.7678 55.5093 54.7678 54.874 54.1324L45.8812 45.1392C49.3437 42.3445 51.563 38.0676 51.563 33.2812C51.563 31.4722 51.2453 29.7363 50.6639 28.125H55.3125C57.8975 28.125 60 26.022 60 23.4375ZM36.3286 46.1719C29.2209 46.1719 23.438 40.3889 23.438 33.2812C23.438 26.1736 29.2209 20.3906 36.3286 20.3906C43.4363 20.3906 49.2192 26.1736 49.2192 33.2812C49.2192 40.3889 43.4367 46.1719 36.3286 46.1719Z" fill="#2C2C2C"/>
<path d="M50.7445 43.7357C50.5266 43.9536 50.4012 44.2557 50.4012 44.5642C50.4012 44.8723 50.5266 45.1744 50.7445 45.3928C50.9637 45.6107 51.265 45.7361 51.573 45.7361C51.8811 45.7361 52.1837 45.6107 52.4016 45.3928C52.6208 45.1744 52.7449 44.8723 52.7449 44.5642C52.7449 44.2557 52.6208 43.9536 52.4016 43.7357C52.1837 43.5178 51.8825 43.3923 51.573 43.3923C51.265 43.3923 50.9624 43.5178 50.7445 43.7357Z" fill="#2C2C2C"/>
</g>
<defs>
<clipPath id="clip0">
<rect width="60" height="60" fill="white"/>
</clipPath>
</defs>
</svg>
